# xmcd CD database file
#
# Track frame offsets:
#	150
#	14470
#	31060
#
# Disc length: 554 seconds
#
# Revision: 0
# Processed by: cddbd v1.5.1PL0 Copyright (c) Steve Scherf et al.
# Submitted via: CDex 1.51
#
DISCID=17022803
DTITLE=HI-POSI - 実験GIRL
DYEAR=1999
DGENRE=Pop
TTITLE0=実験GIRL
TTITLE1=I LOVE YOU だけ
TTITLE2=避難所システム (INST.)
EXTD=YEAR: 1999
EXTT0=
EXTT1=
EXTT2=
PLAYORDER=
